<svg width="220" height="46" viewBox="0 0 220 46" fill="none" xmlns="http://www.w3.org/2000/svg">
<path d="M76.0136 7.50837C73.1088 4.60433 69.4628 2.55322 65.4727 1.57852C61.4826 0.60381 57.3015 0.742895 53.385 1.98063C49.4685 3.21837 45.9668 5.50727 43.2615 8.59793C40.5561 11.6886 38.7509 15.4625 38.0426 19.5084H24.8616L22.0806 27.2424H37.1966C36.3126 30.4705 34.3524 33.2998 31.6407 35.2617C28.929 37.2235 25.6285 38.2002 22.2859 38.0299C18.9432 37.8596 15.7591 36.5526 13.2608 34.3253C10.7625 32.098 9.09996 29.0842 8.54862 25.7829C7.99728 22.4817 8.59019 19.0911 10.2291 16.1729C11.8681 13.2547 14.4547 10.9839 17.5606 9.73664C20.6665 8.48938 24.1053 8.34052 27.3073 9.31471C30.5094 10.2889 33.2826 12.3277 35.1676 15.0934C36.0505 12.4266 37.3583 9.92002 39.0406 7.67037C38.0216 6.63187 36.9048 5.69418 35.7056 4.87037C31.7079 2.12978 26.9302 0.757466 22.0875 0.958803C17.2448 1.16014 12.5975 2.9243 8.84115 5.98727C5.08476 9.05024 2.42128 13.2473 1.24929 17.9503C0.0772988 22.6534 0.459826 27.6095 2.33964 32.077C4.21945 36.5445 7.49545 40.2831 11.6774 42.7334C15.8593 45.1836 20.7223 46.2138 25.5385 45.6696C30.3547 45.1254 34.8652 43.0362 38.395 39.7146C41.9248 36.393 44.284 32.0177 45.1196 27.2434H58.3066L61.0846 19.5094H45.9666C46.8509 16.2823 48.8111 13.4541 51.5224 11.4932C54.2337 9.53228 57.5334 8.5563 60.8751 8.72692C64.2168 8.89753 67.4 10.2045 69.8975 12.4313C72.395 14.6582 74.0569 17.6713 74.608 20.9717C75.1591 24.272 74.5663 27.6617 72.9279 30.5791C71.2894 33.4966 68.7035 35.7669 65.5985 37.014C62.4936 38.2611 59.0557 38.4102 55.8544 37.4365C52.6531 36.4629 49.8805 34.425 47.9956 31.6604C47.1127 34.3268 45.8049 36.8331 44.1226 39.0824C45.1414 40.121 46.2583 41.0587 47.4576 41.8824C52.0708 45.0416 57.6972 46.3647 63.2348 45.5927C68.7725 44.8206 73.8224 42.0089 77.3955 37.7083C80.9686 33.4077 82.8075 27.9281 82.5518 22.3427C82.2962 16.7573 79.9646 11.4686 76.0136 7.51237" fill="#FF8B00"/>
<path d="M95.3568 0.942383H90.7158V20.0354H95.3568V0.942383Z" fill="#231F20"/>
<path d="M111.767 20.0354L108.442 12.5004C107.342 10.0334 106.269 7.43141 105.331 4.85741H105.277C105.412 7.53841 105.492 10.2204 105.492 12.9014V20.0354H101.04V0.942406H107.718L111.071 8.47741C112.144 10.9444 113.216 13.5454 114.181 16.1204H114.235C114.074 13.4374 114.02 10.7574 114.02 8.07441V0.941406H118.472V20.0344L111.767 20.0354Z" fill="#231F20"/>
<path d="M128.766 4.90941V9.30941H136.651V13.2514H128.766V20.0354H124.127V0.941406H137.267V4.91041L128.766 4.90941Z" fill="#231F20"/>
<path d="M146.223 0.942383H141.584V20.0354H146.223V0.942383Z" fill="#231F20"/>
<path d="M162.635 20.0354L159.311 12.5004C158.211 10.0334 157.138 7.43141 156.2 4.85741H156.146C156.281 7.53841 156.361 10.2204 156.361 12.9014V20.0354H151.911V0.942406H158.589L161.942 8.47741C163.015 10.9444 164.087 13.5454 165.052 16.1204H165.106C164.945 13.4374 164.891 10.7574 164.891 8.07441V0.941406H169.343V20.0344L162.635 20.0354Z" fill="#231F20"/>
<path d="M179.637 0.942383H174.996V20.0354H179.637V0.942383Z" fill="#231F20"/>
<path d="M193.796 4.88341V20.0354H189.155V4.88341H183.31V0.941406H199.642V4.88341H193.796Z" fill="#231F20"/>
<path d="M212.698 20.0353H208.059V12.8263L201.515 0.946289H206.665L208.327 4.40429C209.078 5.96029 209.776 7.59629 210.366 9.20429H210.419C211 7.56812 211.671 5.96563 212.431 4.40429L214.093 0.946289H219.241L212.698 12.8263V20.0353Z" fill="#231F20"/>
<path d="M107.074 32.3725H102.087C102.001 31.5952 101.612 30.8831 101.004 30.391C100.396 29.8989 99.6189 29.6666 98.8408 29.7445C96.1338 29.7445 94.4408 32.0775 94.4408 35.9125C94.4408 39.8285 96.1028 42.2125 98.8118 42.2125C101.199 42.2125 102.593 40.7635 102.646 38.2425H98.5458V34.6495H106.993V45.3765H103.029V43.4445H102.976C102.337 44.2227 101.522 44.8377 100.599 45.2387C99.6751 45.6396 98.6695 45.8151 97.6648 45.7505C92.7038 45.7505 89.5928 42.0235 89.5928 35.9095C89.5928 29.6605 93.1328 25.8525 98.8448 25.8525C103.645 25.8525 106.73 28.4005 107.078 32.3695" fill="#231F20"/>
<path d="M127.668 37.9762C127.668 43.0172 124.852 45.8072 119.811 45.8072C114.796 45.8072 111.979 43.0182 111.979 37.9762V26.2832H116.618V37.8692C116.618 40.3892 117.746 41.7292 119.811 41.7292C121.902 41.7292 123.029 40.3892 123.029 37.8692V26.2832H127.668V37.9762Z" fill="#231F20"/>
<path d="M137.831 26.2832H133.19V45.3782H137.831V26.2832Z" fill="#231F20"/>
<path d="M156.79 41.4402V45.3822H143.515V26.2832H148.154V41.4402H156.79Z" fill="#231F20"/>
<path d="M167.434 26.2832C173.978 26.2832 177.625 29.7162 177.625 35.8302C177.625 41.9442 173.978 45.3772 167.434 45.3772H160.676V26.2832H167.434ZM165.289 41.4402H167.328C170.948 41.4402 172.798 39.5402 172.798 35.8402C172.798 32.1402 170.948 30.2402 167.328 30.2402H165.289V41.4402Z" fill="#231F20"/>
</svg>
