<svg width="18" height="19" viewBox="0 0 18 19" fill="none" xmlns="http://www.w3.org/2000/svg">
<path d="M12.5 11.9072H11.71L11.43 11.6372C12.4439 10.4613 13.0011 8.95992 13 7.40723C13 6.12165 12.6188 4.86494 11.9046 3.79602C11.1903 2.7271 10.1752 1.89398 8.98744 1.40201C7.79973 0.910043 6.49279 0.781321 5.23192 1.03213C3.97104 1.28293 2.81285 1.90199 1.90381 2.81104C0.994767 3.72008 0.375703 4.87827 0.124899 6.13914C-0.125905 7.40002 0.00281635 8.70695 0.494786 9.89467C0.986756 11.0824 1.81988 12.0976 2.8888 12.8118C3.95772 13.526 5.21442 13.9072 6.5 13.9072C8.11 13.9072 9.59 13.3172 10.73 12.3372L11 12.6172V13.4072L16 18.3972L17.49 16.9072L12.5 11.9072ZM6.5 11.9072C4.01 11.9072 2 9.89723 2 7.40723C2 4.91723 4.01 2.90723 6.5 2.90723C8.99 2.90723 11 4.91723 11 7.40723C11 9.89723 8.99 11.9072 6.5 11.9072Z" fill="#929292"/>
</svg>
