<svg width="21" height="23" viewBox="0 0 21 23" fill="none" xmlns="http://www.w3.org/2000/svg">
<path d="M20.7523 13.0902C19.884 9.01333 17.4498 5.94445 13.4726 3.98016C13.214 3.85247 13.1143 3.72021 13.142 3.4569C13.1941 2.9602 13.2255 2.46149 13.2577 1.96315C13.2784 1.64338 13.1425 1.4035 12.8077 1.28329C10.9794 0.62707 9.18446 0.597704 7.46013 1.56393C7.32767 1.63808 7.22574 1.87669 7.23664 2.03101C7.27752 2.42216 7.34442 2.81058 7.43695 3.19405C7.60584 4.01016 7.59975 3.99711 6.8694 4.47786C3.86229 6.45701 2.02789 9.1567 1.18845 12.4692C0.416667 15.5147 1.27348 18.145 3.60857 20.3393C5.51525 22.131 7.96277 22.7305 10.5962 22.8104C12.5035 22.8389 14.2648 22.3081 15.964 21.5862C19.521 20.075 21.5094 16.645 20.7523 13.0902ZM18.22 12.6363L16.6156 15.1978L12.6044 13.1952L9.11955 16.595L5.25877 13.6376L2.60132 15.8731L2.30056 13.1718L2.72671 14.7087L5.25877 12.7993L8.8187 15.3608L12.504 12.4267L16.415 14.1961L18.1448 11.8111L19.5237 13.777L18.22 12.6363ZM16.7948 19.0754C16.1729 19.5352 15.4645 19.6694 15.2124 19.3753C14.9604 19.0811 15.26 18.4699 15.8819 18.0101C16.5037 17.5503 17.2122 17.4161 17.4643 17.7102C17.7165 18.0044 17.4167 18.6157 16.7948 19.0754ZM7.7489 7.10312C8.43428 7.50315 8.30437 8.84095 7.45855 10.0911C6.61273 11.3413 5.3714 12.0304 4.68602 11.6304C4.00065 11.2304 4.13056 9.89245 4.97628 8.6423C5.822 7.39215 7.06343 6.703 7.7489 7.10312Z" fill="#929292"/>
</svg>
