<svg width="22" height="16" viewBox="0 0 22 16" fill="none" xmlns="http://www.w3.org/2000/svg">
<path d="M0.912109 8.33025C0.925381 7.80461 0.929804 7.27847 0.954382 6.75332C0.982564 6.14936 1.0208 5.54594 1.06908 4.94307C1.10693 4.47367 1.16018 4.00525 1.21835 3.53781C1.28033 2.99154 1.37942 2.45011 1.51492 1.91723C1.57719 1.65064 1.67068 1.39228 1.79346 1.14748C1.95731 0.843706 2.11444 0.767682 2.45492 0.833408C2.81425 0.91469 3.1605 1.04543 3.48373 1.22187C4.23132 1.61136 4.95234 2.04961 5.64212 2.53378C6.64538 3.21671 7.62045 3.93822 8.57701 4.68442C9.0992 5.09169 9.61024 5.51319 10.1372 5.91424C10.2034 5.95862 10.2525 6.02435 10.276 6.10043C10.2996 6.17652 10.2963 6.25837 10.2666 6.33231C10.1961 6.57369 10.0505 6.78643 9.85077 6.93971C9.55861 7.1937 9.20779 7.37129 8.82982 7.45652C8.78252 7.47192 8.73176 7.47326 8.68371 7.4604C8.63565 7.44755 8.59238 7.42104 8.55915 7.38409C8.40234 7.20327 8.24914 7.01932 8.09463 6.83637C7.92718 6.63838 7.76202 6.43826 7.59178 6.24256C7.57597 6.21844 7.55481 6.19827 7.52995 6.18362C7.50508 6.16897 7.47717 6.16023 7.44837 6.15806C7.41958 6.1559 7.39066 6.16037 7.36388 6.17114C7.33709 6.1819 7.31314 6.19867 7.29389 6.22015C6.18053 7.09683 5.10307 8.01519 4.0754 8.99095C4.05915 9.01276 4.03664 9.02912 4.01087 9.03788C3.98509 9.04664 3.95725 9.04738 3.93104 9.03999C3.9054 9.031 3.88314 9.01437 3.86726 8.99235C3.85138 8.97034 3.84264 8.944 3.84224 8.91688C3.77655 8.49494 3.7433 8.0686 3.74278 7.64159C3.74447 7.59854 3.7623 7.5577 3.79275 7.52715C4.33165 7.03993 4.87072 6.55271 5.41487 6.07202C5.68506 5.83299 5.96573 5.60573 6.24133 5.37275C6.26773 5.35492 6.28907 5.33058 6.30328 5.3021C6.3175 5.27362 6.32409 5.24196 6.32244 5.21019C6.3208 5.17842 6.31096 5.14761 6.29387 5.12075C6.27679 5.09389 6.25305 5.07189 6.22494 5.05687C5.56729 4.61655 4.84459 4.28174 4.0831 4.06461C4.02167 4.04751 3.95638 4.05041 3.89671 4.07287C3.83704 4.09533 3.7861 4.13619 3.7513 4.18951C3.63019 4.3492 3.54117 4.53074 3.48914 4.72415C3.37424 5.086 3.29612 5.45848 3.25598 5.83594C3.20142 6.33101 3.14833 6.82738 3.12621 7.32458C3.10213 7.86412 3.10278 8.40595 3.11425 8.94631C3.12375 9.38514 3.15456 9.82429 3.19618 10.2615C3.23506 10.8552 3.34846 11.4416 3.53371 12.0071C3.5756 12.1229 3.62741 12.2349 3.68855 12.3418C3.7343 12.4495 3.8189 12.5362 3.92561 12.5846C4.03232 12.6331 4.15337 12.6398 4.2648 12.6034C4.63523 12.5253 4.991 12.3894 5.31901 12.2007C5.87906 11.8957 6.41876 11.555 6.93474 11.1805C7.86197 10.5265 8.75724 9.82952 9.63334 9.10899C11.2653 7.76668 12.8871 6.41128 14.52 5.0706C15.5015 4.26402 16.49 3.4668 17.4857 2.67896C18.0453 2.23094 18.6367 1.82396 19.2553 1.46124C19.5415 1.28025 19.8516 1.13987 20.1766 1.04415C20.3052 1.01022 20.4381 0.994971 20.5711 0.998866C20.6665 1.0099 20.7575 1.04434 20.8363 1.09909C20.915 1.15384 20.9789 1.2272 21.0222 1.31262C21.2038 1.60994 21.3357 1.93482 21.4125 2.27447C21.5336 2.7446 21.6239 3.22209 21.6829 3.70393C21.8194 4.74425 21.8934 5.7918 21.9044 6.84095C21.9149 7.72384 21.917 8.60901 21.8959 9.49255C21.8795 10.1956 21.8315 10.8986 21.7795 11.5995C21.7237 12.4141 21.6215 13.2247 21.4733 14.0276C21.4002 14.4955 21.2705 14.9529 21.0869 15.3896C21.049 15.467 21.0055 15.5416 20.9568 15.6127C20.9084 15.6868 20.8387 15.7444 20.7568 15.7782C20.6749 15.812 20.5847 15.8203 20.4981 15.8021C20.1699 15.754 19.8523 15.651 19.5585 15.4975C18.7369 15.0949 17.9505 14.6246 17.2073 14.0914C16.4851 13.5896 15.7682 13.0789 15.0664 12.549C14.268 11.946 13.4925 11.3126 12.6982 10.7041C12.6331 10.6602 12.585 10.5955 12.5617 10.5207C12.5384 10.4459 12.5414 10.3655 12.57 10.2925C12.6359 10.0604 12.7729 9.85455 12.9618 9.70395C13.2616 9.43506 13.6263 9.24843 14.0201 9.16229C14.0653 9.14821 14.1136 9.14745 14.1592 9.16009C14.2048 9.17274 14.2457 9.19825 14.2772 9.23357C14.4451 9.42764 14.6149 9.62057 14.7738 9.82216C15.7584 11.136 17.1458 12.0935 18.7252 12.5491C18.7911 12.5723 18.8628 12.5733 18.9292 12.5519C18.9957 12.5305 19.0533 12.488 19.0932 12.4308C19.2221 12.2583 19.3153 12.0619 19.3673 11.8531C19.4769 11.4768 19.5537 11.0917 19.5967 10.7021C19.6424 10.3002 19.685 9.89721 19.7032 9.49353C19.7281 8.94369 19.7407 8.39271 19.7352 7.84221C19.7311 7.42333 19.7003 7.00396 19.6636 6.58623C19.6308 6.21819 19.5816 5.85049 19.5263 5.48556C19.4801 5.14563 19.3908 4.81292 19.2607 4.49542C19.2143 4.39193 19.1595 4.29241 19.0968 4.19785C19.0492 4.12014 18.977 4.06043 18.8916 4.02811C18.8063 3.99579 18.7126 3.9927 18.6253 4.01932C18.3555 4.08259 18.0966 4.18517 17.8568 4.32375C17.2118 4.68488 16.594 5.0923 16.0082 5.54278C14.9229 6.34572 13.8813 7.20376 12.8391 8.06065C12.0833 8.68194 11.3266 9.3023 10.5689 9.92174C9.78917 10.5608 9.01121 11.2022 8.22899 11.8386C7.1384 12.7257 6.04979 13.6151 4.8994 14.4267C4.39206 14.8008 3.85189 15.1284 3.28547 15.4054C3.05712 15.5181 2.81327 15.5963 2.56191 15.6376C2.41771 15.6675 2.26773 15.6515 2.13319 15.5916C1.99866 15.5318 1.8864 15.4312 1.8123 15.3042C1.63489 15.0074 1.50477 14.6848 1.4266 14.3481C1.28236 13.8022 1.18257 13.2455 1.12822 12.6835C1.06596 12.0603 1.0037 11.436 0.971913 10.8105C0.937013 10.1254 0.936199 9.43876 0.92178 8.75273C0.918831 8.61212 0.92178 8.47151 0.92178 8.33107L0.912109 8.33025Z" fill="#929292"/>
</svg>
