<svg width="54" height="55" viewBox="0 0 54 55" fill="none" xmlns="http://www.w3.org/2000/svg">
<path d="M33.75 33.3472L41.58 37.9372L39.42 41.4472L29.7 35.5072V22.0072H33.75V33.3472ZM54 32.8072C54 44.7142 44.307 54.4072 32.4 54.4072C26.946 54.4072 21.978 52.3552 18.171 49.0072H5.4C2.295 49.0072 0 46.7122 0 43.6072V19.3072C0 16.2832 2.403 14.0152 5.4 13.9072V12.5572C5.4 5.83423 10.827 0.407227 17.55 0.407227C23.868 0.407227 28.998 5.24023 29.592 11.4232C30.51 11.2882 31.455 11.2072 32.4 11.2072C44.307 11.2072 54 20.9002 54 32.8072ZM10.8 13.9072H24.3V11.9092C23.976 8.48023 21.06 5.80723 17.55 5.80723C13.824 5.80723 10.8 8.83123 10.8 12.5572V13.9072ZM48.6 32.8072C48.6 23.8702 41.337 16.6072 32.4 16.6072C23.463 16.6072 16.2 23.8702 16.2 32.8072C16.2 41.7442 23.463 49.0072 32.4 49.0072C41.337 49.0072 48.6 41.7442 48.6 32.8072Z" fill="#FF8B00"/>
</svg>
