<svg width="49" height="60" viewBox="0 0 49 60" fill="none" xmlns="http://www.w3.org/2000/svg">
<path d="M30.8407 0.785156H6.74978C3.43728 0.785156 0.727051 3.44425 0.727051 6.69425V53.967C0.727051 57.217 3.43728 59.8761 6.74978 59.8761H42.8861C46.1986 59.8761 48.9089 57.217 48.9089 53.967V18.5124L30.8407 0.785156ZM33.8521 27.3761H21.8066V30.3306H30.8407C32.4969 30.3306 33.8521 31.6602 33.8521 33.2852V42.1488C33.8521 43.7738 32.4969 45.1033 30.8407 45.1033H27.8293V48.0579H21.8066V45.1033H15.7839V39.1942H27.8293V36.2397H18.7952C17.139 36.2397 15.7839 34.9102 15.7839 33.2852V24.4215C15.7839 22.7965 17.139 21.467 18.7952 21.467H21.8066V18.5124H27.8293V21.467H33.8521V27.3761Z" fill="white"/>
</svg>
