<svg width="18" height="19" viewBox="0 0 18 19" fill="none" xmlns="http://www.w3.org/2000/svg">
<path d="M9 18.373C4.05 18.373 0 14.323 0 9.37305C0 4.42305 4.05 0.373047 9 0.373047C13.95 0.373047 18 4.42305 18 9.37305C18 14.323 13.95 18.373 9 18.373ZM9 2.24805C5.1 2.24805 1.875 5.47305 1.875 9.37305C1.875 13.273 5.1 16.498 9 16.498C12.9 16.498 16.125 13.273 16.125 9.37305C16.125 5.47305 12.9 2.24805 9 2.24805Z" fill="#FF8B00"/>
<path d="M7.5749 12.8984C7.3499 12.8984 7.0499 12.8234 6.8999 12.5984L5.0249 10.7234C4.6499 10.3484 4.6499 9.74844 5.0249 9.37344C5.3999 8.99844 5.9999 8.99844 6.3749 9.37344L7.5749 10.5734L11.6249 6.52344C11.9999 6.14844 12.5999 6.14844 12.9749 6.52344C13.3499 6.89844 13.3499 7.49844 12.9749 7.87344L8.2499 12.5984C8.0249 12.8234 7.7999 12.8984 7.5749 12.8984Z" fill="#FF8B00"/>
</svg>
