<svg width="19" height="19" viewBox="0 0 19 19" fill="none" xmlns="http://www.w3.org/2000/svg">
<path d="M9.50002 0.373047C7.71998 0.373047 5.97992 0.900889 4.49988 1.88982C3.01983 2.87876 1.86628 4.28437 1.18509 5.92891C0.5039 7.57344 0.325669 9.38305 0.672937 11.1289C1.0202 12.8747 1.87737 14.4784 3.13605 15.737C4.39472 16.9957 5.99837 17.8529 7.7442 18.2001C9.49004 18.5474 11.2996 18.3692 12.9442 17.688C14.5887 17.0068 15.9943 15.8532 16.9833 14.3732C17.9722 12.8932 18.5 11.1531 18.5 9.37306C18.5 8.19116 18.2672 7.02084 17.8149 5.92891C17.3627 4.83697 16.6997 3.84482 15.864 3.00909C15.0283 2.17336 14.0361 1.51043 12.9442 1.05813C11.8522 0.605839 10.6819 0.373047 9.50002 0.373047ZM9.50002 16.5731C8.07599 16.5731 6.68394 16.1508 5.49991 15.3597C4.31587 14.5685 3.39303 13.444 2.84808 12.1284C2.30312 10.8128 2.16054 9.36508 2.43835 7.96841C2.71617 6.57174 3.4019 5.28883 4.40884 4.28189C5.41578 3.27495 6.6987 2.58921 8.09537 2.3114C9.49203 2.03358 10.9397 2.17617 12.2553 2.72112C13.571 3.26607 14.6955 4.18891 15.4866 5.37295C16.2778 6.55699 16.7 7.94904 16.7 9.37306C16.7 11.2826 15.9415 13.114 14.5912 14.4642C13.2409 15.8145 11.4096 16.5731 9.50002 16.5731Z" fill="white"/>
<path d="M9.50014 4.87305C9.26144 4.87305 9.03252 4.96787 8.86374 5.13665C8.69496 5.30543 8.60014 5.53435 8.60014 5.77305V10.2731C8.60014 10.5118 8.69496 10.7407 8.86374 10.9095C9.03252 11.0782 9.26144 11.1731 9.50014 11.1731C9.73883 11.1731 9.96775 11.0782 10.1365 10.9095C10.3053 10.7407 10.4001 10.5118 10.4001 10.2731V5.77305C10.4001 5.53435 10.3053 5.30543 10.1365 5.13665C9.96775 4.96787 9.73883 4.87305 9.50014 4.87305ZM10.1391 12.3521L10.0041 12.2351L9.84214 12.1541L9.67114 12.0731C9.52581 12.0452 9.37587 12.0537 9.23459 12.0976C9.0933 12.1416 8.96503 12.2197 8.86114 12.3251C8.78018 12.408 8.71601 12.5058 8.67214 12.6131C8.62027 12.7258 8.59561 12.8491 8.60014 12.9731C8.60113 13.2092 8.69487 13.4354 8.86114 13.6031C8.94836 13.6852 9.04876 13.7521 9.15814 13.8011C9.26587 13.8487 9.38236 13.8733 9.50014 13.8733C9.61792 13.8733 9.73441 13.8487 9.84214 13.8011C9.95152 13.7521 10.0519 13.6852 10.1391 13.6031C10.3054 13.4354 10.3991 13.2092 10.4001 12.9731C10.3999 12.8524 10.3754 12.733 10.3281 12.6221C10.2823 12.5212 10.2182 12.4297 10.1391 12.3521Z" fill="white"/>
</svg>
