<svg width="24" height="25" viewBox="0 0 24 25" fill="none" xmlns="http://www.w3.org/2000/svg">
<path d="M19.1156 12.6848C19.1156 13.0275 19.0927 13.3703 19.047 13.7113C19.0576 13.634 19.0681 13.5549 19.0787 13.4775C18.9873 14.1525 18.808 14.8135 18.5425 15.441C18.5724 15.3707 18.6023 15.3004 18.6304 15.2318C18.3738 15.8383 18.0398 16.4078 17.639 16.9299C17.6847 16.8701 17.7304 16.8121 17.7761 16.7524C17.3718 17.2762 16.9007 17.7455 16.3787 18.1498C16.4384 18.1041 16.4964 18.0584 16.5562 18.0127C16.0341 18.4135 15.4646 18.7475 14.8582 19.0041C14.9285 18.9742 14.9988 18.9443 15.0673 18.9162C14.4398 19.1799 13.7789 19.3609 13.1039 19.4524C13.1812 19.4418 13.2603 19.4313 13.3377 19.4207C12.6574 19.5104 11.9666 19.5104 11.2845 19.4207C11.3619 19.4313 11.441 19.4418 11.5183 19.4524C10.8433 19.3609 10.1824 19.1816 9.55484 18.9162C9.62516 18.9461 9.69547 18.976 9.76402 19.0041C9.15758 18.7475 8.58805 18.4135 8.06598 18.0127C8.12574 18.0584 8.18375 18.1041 8.24351 18.1498C7.71969 17.7455 7.25035 17.2744 6.84605 16.7524C6.89176 16.8121 6.93746 16.8701 6.98316 16.9299C6.58238 16.4078 6.2484 15.8383 5.99176 15.2318C6.02164 15.3022 6.05152 15.3725 6.07965 15.441C5.81597 14.8135 5.63492 14.1525 5.54351 13.4775C5.55406 13.5549 5.56461 13.634 5.57515 13.7113C5.48551 13.0311 5.48551 12.3402 5.57515 11.6582C5.56461 11.7356 5.55406 11.8147 5.54351 11.892C5.63492 11.217 5.81422 10.5561 6.07965 9.92852C6.04976 9.99883 6.01988 10.0691 5.99176 10.1377C6.2484 9.53126 6.58238 8.96172 6.98316 8.43965C6.93746 8.49942 6.89176 8.55743 6.84605 8.61719C7.25035 8.09336 7.72144 7.62403 8.24351 7.21973C8.18375 7.26544 8.12574 7.31114 8.06598 7.35684C8.58805 6.95606 9.15758 6.62208 9.76402 6.36543C9.69371 6.39532 9.6234 6.4252 9.55484 6.45333C10.1824 6.18965 10.8433 6.0086 11.5183 5.91719C11.441 5.92774 11.3619 5.93829 11.2845 5.94883C11.9648 5.85918 12.6556 5.85918 13.3377 5.94883C13.2603 5.93829 13.1812 5.92774 13.1039 5.91719C13.7789 6.0086 14.4398 6.1879 15.0673 6.45333C14.997 6.42344 14.9267 6.39356 14.8582 6.36543C15.4646 6.62208 16.0341 6.95606 16.5562 7.35684C16.4964 7.31114 16.4384 7.26544 16.3787 7.21973C16.9025 7.62403 17.3718 8.09512 17.7761 8.61719C17.7304 8.55743 17.6847 8.49942 17.639 8.43965C18.0398 8.96172 18.3738 9.53126 18.6304 10.1377C18.6005 10.0674 18.5707 9.99708 18.5425 9.92852C18.8062 10.5561 18.9873 11.217 19.0787 11.892C19.0681 11.8147 19.0576 11.7356 19.047 11.6582C19.0927 11.9992 19.1156 12.342 19.1156 12.6848C19.1156 12.9098 19.214 13.1471 19.3722 13.307C19.5252 13.46 19.7748 13.5742 19.9945 13.5637C20.2212 13.5531 20.4568 13.4793 20.6168 13.307C20.775 13.1348 20.8752 12.9238 20.8734 12.6848C20.8716 11.8059 20.7398 10.9129 20.4673 10.0762C20.2037 9.26407 19.8257 8.48008 19.3283 7.78399C19.0646 7.41309 18.7781 7.05626 18.4617 6.7293C18.1435 6.40059 17.7972 6.11055 17.4334 5.83282C16.7548 5.31251 15.9972 4.92051 15.1974 4.6252C14.3748 4.32286 13.4941 4.16465 12.6205 4.1295C11.7345 4.09434 10.8275 4.20333 9.97496 4.4459C9.15758 4.67793 8.35953 5.03653 7.64937 5.50411C6.94625 5.96641 6.29762 6.52715 5.76148 7.17579C5.46969 7.53086 5.19371 7.90176 4.95816 8.29551C4.72086 8.69102 4.52926 9.10762 4.35347 9.53477C4.02125 10.3451 3.84019 11.2082 3.7734 12.0801C3.70484 12.9643 3.78922 13.8713 3.99664 14.7326C4.19879 15.5641 4.53629 16.3779 4.98101 17.1092C5.41695 17.8264 5.96363 18.4943 6.59117 19.0516C7.22398 19.6123 7.93238 20.0957 8.70406 20.4438C9.12594 20.6354 9.56012 20.8041 10.0066 20.9289C10.4636 21.0572 10.9312 21.1346 11.4023 21.1891C12.2935 21.2945 13.2005 21.2348 14.0777 21.0572C14.9162 20.8867 15.7371 20.5721 16.4841 20.1555C17.2171 19.7459 17.9009 19.2186 18.481 18.6104C19.0664 17.9986 19.5726 17.2955 19.9488 16.5379C20.3337 15.7645 20.6168 14.9383 20.7468 14.084C20.8171 13.6182 20.8664 13.1523 20.8664 12.6813C20.8664 12.4563 20.7679 12.219 20.6097 12.059C20.4568 11.9061 20.2072 11.7918 19.9875 11.8023C19.7607 11.8129 19.5252 11.8867 19.3652 12.059C19.2158 12.2348 19.1156 12.4457 19.1156 12.6848Z" fill="white"/>
<path d="M12.3125 18.1061C12.5375 18.1061 12.7748 18.0077 12.9348 17.8495C13.0877 17.6966 13.202 17.447 13.1914 17.2272C13.1809 17.0005 13.107 16.7649 12.9348 16.605C12.7625 16.4468 12.5516 16.3483 12.3125 16.3483C12.0875 16.3483 11.8502 16.4468 11.6902 16.605C11.5373 16.7579 11.4231 17.0075 11.4336 17.2272C11.4442 17.454 11.518 17.6895 11.6902 17.8495C11.8625 18.0077 12.0752 18.1061 12.3125 18.1061ZM10.6074 10.7251C10.6074 10.6108 10.6145 10.4983 10.6303 10.3841C10.6197 10.4614 10.6092 10.5405 10.5986 10.6179C10.6303 10.3911 10.6901 10.1696 10.7779 9.95867C10.7481 10.029 10.7182 10.0993 10.6901 10.1679C10.7779 9.96219 10.8904 9.76883 11.0258 9.59129C10.9801 9.65105 10.9344 9.70906 10.8887 9.76883C11.0258 9.59305 11.1822 9.4366 11.358 9.29949C11.2983 9.34519 11.2402 9.3909 11.1805 9.4366C11.358 9.30125 11.5514 9.18875 11.757 9.10086C11.6867 9.13074 11.6164 9.16062 11.5479 9.18875C11.7588 9.10086 11.9803 9.04109 12.207 9.00945C12.1297 9.02 12.0506 9.03055 11.9733 9.04109C12.2 9.01297 12.4285 9.01297 12.6553 9.04109C12.5779 9.03055 12.4988 9.02 12.4215 9.00945C12.6483 9.04109 12.8697 9.0991 13.0824 9.18699C13.0121 9.15711 12.9418 9.12722 12.8733 9.0991C13.0789 9.18699 13.2723 9.29949 13.4498 9.43484C13.39 9.38914 13.332 9.34344 13.2723 9.29773C13.4481 9.43484 13.6045 9.59129 13.7416 9.76707C13.6959 9.7073 13.6502 9.6493 13.6045 9.58953C13.7399 9.76707 13.8523 9.96043 13.9402 10.1661C13.9104 10.0958 13.8805 10.0255 13.8523 9.95691C13.9402 10.1696 14 10.3893 14.0299 10.6179C14.0193 10.5405 14.0088 10.4614 13.9982 10.3841C14.0264 10.6108 14.0264 10.8393 13.9982 11.0643C14.0088 10.987 14.0193 10.9079 14.0299 10.8305C13.9982 11.0573 13.9385 11.2788 13.8506 11.4915C13.8805 11.4212 13.9104 11.3509 13.9385 11.2823C13.8506 11.488 13.7381 11.6813 13.601 11.8606C13.6467 11.8009 13.6924 11.7429 13.7381 11.6831C13.601 11.8589 13.4445 12.0153 13.2688 12.1524C13.3285 12.1067 13.3865 12.061 13.4463 12.0153C13.2705 12.1489 13.0807 12.2579 12.8803 12.3475C12.6236 12.4618 12.3828 12.6411 12.1842 12.838C11.7236 13.2968 11.467 13.9137 11.4371 14.5606C11.4319 14.6889 11.4354 14.8173 11.4354 14.9456C11.4354 15.1706 11.5338 15.4079 11.692 15.5679C11.8449 15.7208 12.0945 15.835 12.3143 15.8245C12.541 15.8139 12.7766 15.7401 12.9365 15.5679C13.0947 15.3956 13.1932 15.1846 13.1932 14.9456C13.1932 14.7663 13.1861 14.587 13.209 14.4095C13.1984 14.4868 13.1879 14.5659 13.1774 14.6432C13.1984 14.5026 13.2354 14.3673 13.2899 14.2354C13.26 14.3057 13.2301 14.3761 13.202 14.4446C13.26 14.3075 13.3356 14.1809 13.427 14.0614C13.3813 14.1212 13.3356 14.1792 13.2899 14.2389C13.3777 14.1282 13.4779 14.0298 13.5887 13.9419C13.5289 13.9876 13.4709 14.0333 13.4111 14.079C13.5816 13.9489 13.7732 13.8733 13.9613 13.7749C14.1951 13.6518 14.4096 13.4901 14.61 13.3196C14.9633 13.019 15.2621 12.62 15.4484 12.1946C15.5574 11.945 15.6559 11.6971 15.7051 11.4282C15.7543 11.1575 15.7895 10.8798 15.7754 10.6038C15.7508 10.0694 15.6154 9.56668 15.3693 9.09383C14.9316 8.25359 14.1055 7.61023 13.1914 7.37469C12.6623 7.23933 12.1297 7.23758 11.5953 7.33953C11.3404 7.38699 11.1067 7.48191 10.8676 7.58387C10.6901 7.65945 10.5213 7.75262 10.3649 7.86512C9.91838 8.18504 9.5299 8.5823 9.26975 9.07273C8.99905 9.5825 8.85139 10.1468 8.84963 10.7268C8.84787 10.9518 8.94807 11.1891 9.10627 11.3491C9.2592 11.502 9.50881 11.6163 9.72854 11.6057C10.2067 11.5829 10.6057 11.219 10.6074 10.7251Z" fill="white"/>
</svg>
